<?xml version="1.0" encoding="iso-8859-1"?><!-- Generator: Adobe Illustrator 22.1.0, SVG Export Plug-In . SVG Version: 6.00 Build 0)  --><svg xmlns="http://www.w3.org/2000/svg" xmlns:xlink="http://www.w3.org/1999/xlink" viewBox="0 0 48 48" width="48px" height="48px"><path style="fill:#EDE7F6;" d="M39,43H9c-2.199,0-4-1.801-4-4V9c0-2.199,1.801-4,4-4h30c2.199,0,4,1.801,4,4v30  C43,41.199,41.199,43,39,43z"/><path style="fill:#EDBD28;" d="M32,22.5c0,0.801-0.699,1.5-1.5,1.5S29,23.301,29,22.5s0.699-1.5,1.5-1.5S32,21.699,32,22.5 M19,22.5  c0-0.801-0.699-1.5-1.5-1.5S16,21.699,16,22.5s0.699,1.5,1.5,1.5S19,23.301,19,22.5"/><path style="fill:#EDB405;" d="M24,35c-4,0-4-4-4-4v-4h8v4C28,31,28,35,24,35z"/><path style="fill:#FFCA28;" d="M31,18.699c0-5.898-14-3.801-14,0v4.402C17,26.898,20.102,30,24,30s7-3.102,7-6.898V18.699z"/><path style="fill:#424242;" d="M24,11c-4.898,0-8,4.301-8,8.199V21l2,2v-4l9.199-3L30,19v4l2-2v-0.801  c0-3.199-0.801-6.801-4.801-7.598L26.398,11H24z"/><path style="fill:#784719;" d="M26,22c0-0.602,0.398-1,1-1s1,0.398,1,1s-0.398,1-1,1S26,22.602,26,22 M20,22c0,0.602,0.398,1,1,1  s1-0.398,1-1s-0.398-1-1-1S20,21.398,20,22"/><path style="fill:#FFFFFF;" d="M24,42l-4-11l4,1l4-1L24,42z"/><path style="fill:#D32F2F;" d="M23.199,34.398L22,38.102L24,42l2-3.898l-1.199-3.703l0.898-0.797L24,32l-1.602,1.602L23.199,34.398z  "/><path style="fill:#3F51B5;" d="M28,31l-4,10l-4-10c0,0-9,0.898-9,12h26C37,31.898,28,31,28,31"/></svg>